<?xml version="1.0" encoding="UTF-8" standalone="no"?>
<!-- Generator: Adobe Illustrator 19.0.0, SVG Export Plug-In . SVG Version: 6.00 Build 0)  -->

<svg
   xmlns:dc="http://purl.org/dc/elements/1.1/"
   xmlns:cc="http://creativecommons.org/ns#"
   xmlns:rdf="http://www.w3.org/1999/02/22-rdf-syntax-ns#"
   xmlns:svg="http://www.w3.org/2000/svg"
   xmlns="http://www.w3.org/2000/svg"
   xmlns:sodipodi="http://sodipodi.sourceforge.net/DTD/sodipodi-0.dtd"
   xmlns:inkscape="http://www.inkscape.org/namespaces/inkscape"
   version="1.1"
   id="Layer_1"
   x="0px"
   y="0px"
   viewBox="0 0 492 492"
   style="enable-background:new 0 0 492 492;"
   xml:space="preserve"
   sodipodi:docname="back2.svg"
   inkscape:version="0.92.5 (2060ec1f9f, 2020-04-08)"><metadata
   id="metadata45"><rdf:RDF><cc:Work
       rdf:about=""><dc:format>image/svg+xml</dc:format><dc:type
         rdf:resource="http://purl.org/dc/dcmitype/StillImage" /><dc:title></dc:title></cc:Work></rdf:RDF></metadata><defs
   id="defs43">
	

		
	














</defs><sodipodi:namedview
   pagecolor="#ffffff"
   bordercolor="#666666"
   borderopacity="1"
   objecttolerance="10"
   gridtolerance="10"
   guidetolerance="10"
   inkscape:pageopacity="0"
   inkscape:pageshadow="2"
   inkscape:window-width="1360"
   inkscape:window-height="708"
   id="namedview41"
   showgrid="false"
   inkscape:zoom="0.4796748"
   inkscape:cx="604.50248"
   inkscape:cy="246"
   inkscape:window-x="0"
   inkscape:window-y="28"
   inkscape:window-maximized="1"
   inkscape:current-layer="Layer_1" />
<style
   type="text/css"
   id="style2">
	.st0{fill:#FFFFFF;}
</style>
<path
   style="fill:#1a1a1a"
   d="M 347.50391 0 C 340.29591 0 333.54056 2.7912812 328.47656 7.8632812 L 109.32812 227.00781 C 104.24412 232.08781 101.46047 238.8758 101.48047 246.0918 C 101.46047 253.3398 104.24012 260.11912 109.32812 265.20312 L 328.27148 484.13672 C 333.33548 489.20872 340.09269 492 347.30469 492 C 354.51269 492 361.26794 489.20872 366.33594 484.13672 L 382.46094 468.01562 C 383.14663 467.32993 383.78479 466.61525 384.38086 465.87695 L 164.60742 246.10352 L 384.58594 26.125 C 383.98639 25.383158 383.34787 24.667646 382.66406 23.984375 L 366.53516 7.8632812 C 361.47516 2.7912812 354.71191 -5.9211895e-16 347.50391 0 z "
   id="path4" />















</svg>