<svg id="Слой_1" data-name="Слой 1" xmlns="http://www.w3.org/2000/svg" viewBox="0 0 443 104.63"><defs><style>.cls-1{fill:#fff;}</style></defs><title>logo</title><path class="cls-1" d="M199.87,77l13.06,31.34L223.29,83.5A10.51,10.51,0,0,1,233,77h8.65v67.71A10.63,10.63,0,0,1,231,155.37h-5V114.63l-10.45,25.08h-5.22l-10.44-25.07v40.72h-5a10.62,10.62,0,0,1-10.62-10.62V87.65A10.61,10.61,0,0,1,194.83,77Z" transform="translate(-36.79 -64.67)"/><path class="cls-1" d="M278.8,77a10.41,10.41,0,0,1,10.41,10.41v57.61a10.32,10.32,0,0,1-10.32,10.32H257.71a10.27,10.27,0,0,1-10.27-10.27V87.34A10.33,10.33,0,0,1,257.76,77h21Zm-5.26,60.18v-42a2.48,2.48,0,0,0-2.48-2.48h-5.38a2.59,2.59,0,0,0-2.58,2.59v41.92a2.48,2.48,0,0,0,2.48,2.49h5.48A2.49,2.49,0,0,0,273.54,137.21Z" transform="translate(-36.79 -64.67)"/><path class="cls-1" d="M326.45,77a10.42,10.42,0,0,1,10.41,10.41v57.61a10.33,10.33,0,0,1-10.32,10.32H295.07V77Zm-5.27,15.66h-9.6a.85.85,0,0,0-.84.85v46.15h10.44Z" transform="translate(-36.79 -64.67)"/><path class="cls-1" d="M384.5,92.69H359.35a1,1,0,0,0-1,1v14.71h20.89V124H359.35a1,1,0,0,0-1,1v14.7h26.12V145a10.37,10.37,0,0,1-10.37,10.36H342.71v-68A10.38,10.38,0,0,1,353.08,77H384.5Z" transform="translate(-36.79 -64.67)"/><path class="cls-1" d="M432.14,77v38.51a8.49,8.49,0,0,1-8.49,8.49h-2l10.49,31.33H416.48L406,124.17v20.72a10.48,10.48,0,0,1-10.47,10.48h-5.2v-68A10.3,10.3,0,0,1,400.65,77ZM406,93.69v14.67h10.45V92.69H407A1,1,0,0,0,406,93.69Z" transform="translate(-36.79 -64.67)"/><path class="cls-1" d="M479.79,77v68a10.31,10.31,0,0,1-10.32,10.31h-5.35L453.67,124v31.36H438v-68A10.32,10.32,0,0,1,448.32,77h5.38l10.42,31.29V77Z" transform="translate(-36.79 -64.67)"/><path class="cls-1" d="M36.79,64.67V169.3H171.31V64.67Zm71,80.21A10.63,10.63,0,0,1,97.17,155.5h-5L79.06,124.16,68.7,149A10.51,10.51,0,0,1,59,155.49H50.34V87.78A10.62,10.62,0,0,1,61,77.16H66v40.73L76.45,92.82h5.22l10.45,25.07V77.16h5a10.63,10.63,0,0,1,10.63,10.63Zm47.56-52H130.19a1,1,0,0,0-.95,1v14.7h20.89v15.68H130.19a1,1,0,0,0-.95,1v14.7h26.11v5.3A10.37,10.37,0,0,1,145,155.5H113.56v-68a10.37,10.37,0,0,1,10.37-10.37h31.42V92.83Z" transform="translate(-36.79 -64.67)"/></svg>